<svg width="52" height="52" viewBox="0 0 52 52" fill="none" xmlns="http://www.w3.org/2000/svg">
<g clip-path="url(#clip0_4_11)">
<rect width="52" height="52" fill="#B185D6"/>
<path d="M22.8674 6.05763C23.4181 4.99235 23.0028 3.68332 21.9465 3.13263C20.8903 2.58193 19.5722 2.99721 19.0215 4.05346L10.6167 20.2222H2.88889C1.29097 20.2222 9.53674e-07 21.5132 9.53674e-07 23.1111C9.53674e-07 24.709 1.29097 26 2.88889 26L7.57431 44.7326C8.21528 47.3055 10.5264 49.1111 13.1806 49.1111H38.8194C41.4736 49.1111 43.7847 47.3055 44.4257 44.7326L49.1111 26C50.709 26 52 24.709 52 23.1111C52 21.5132 50.709 20.2222 49.1111 20.2222H41.3833L32.9785 4.05346C32.4278 2.99721 31.1187 2.58193 30.0535 3.13263C28.9882 3.68332 28.5819 4.99235 29.1326 6.05763L36.4993 20.2222H15.5007L22.8674 6.05763ZM17.3333 30.3333V39C17.3333 39.7944 16.6833 40.4444 15.8889 40.4444C15.0944 40.4444 14.4444 39.7944 14.4444 39V30.3333C14.4444 29.5389 15.0944 28.8889 15.8889 28.8889C16.6833 28.8889 17.3333 29.5389 17.3333 30.3333ZM26 28.8889C26.7944 28.8889 27.4444 29.5389 27.4444 30.3333V39C27.4444 39.7944 26.7944 40.4444 26 40.4444C25.2056 40.4444 24.5556 39.7944 24.5556 39V30.3333C24.5556 29.5389 25.2056 28.8889 26 28.8889ZM37.5556 30.3333V39C37.5556 39.7944 36.9056 40.4444 36.1111 40.4444C35.3167 40.4444 34.6667 39.7944 34.6667 39V30.3333C34.6667 29.5389 35.3167 28.8889 36.1111 28.8889C36.9056 28.8889 37.5556 29.5389 37.5556 30.3333Z" fill="#6214A3"/>
</g>
<defs>
<clipPath id="clip0_4_11">
<rect width="52" height="52" fill="white"/>
</clipPath>
</defs>
</svg>
