<svg width="200" height="200" viewBox="0 0 200 200" fill="none" xmlns="http://www.w3.org/2000/svg">
<g clip-path="url(#clip0_9_48)">
<path d="M16.6523 34.7656C19.8945 53.9844 23.457 73.8672 22.2578 93.9453C21.125 113.008 11.2461 130.195 9.92187 146.484H134.805C136.875 140.078 141.133 134.414 145.859 130.039C147.5 128.516 149.18 127.109 150.859 125.898C137.227 122.109 126.758 116.523 118.633 109.766H95.3125V102.734H111.328C108.008 99.0234 105.195 95.0781 102.852 91.0156H81.25V83.9844H99.2188C97.4219 80.1172 95.9375 76.2109 94.6484 72.2656H75V65.2344H92.5C91.4062 61.2891 90.4297 57.3438 89.5312 53.5156H68.75V46.4844H87.8906C86.9531 42.3828 85.9766 38.4609 84.8828 34.7656H16.6523ZM50 83.9844C62.2656 83.9844 72.2656 93.9844 72.2656 106.25C72.2656 118.516 62.2656 128.516 50 128.516C37.7461 128.516 27.7344 118.516 27.7344 106.25C27.7344 93.9844 37.7461 83.9844 50 83.9844ZM50 91.0156C41.5625 91.0156 34.7656 97.8125 34.7656 106.25C34.7656 114.688 41.5625 121.484 50 121.484C58.4375 121.484 65.2344 114.688 65.2344 106.25C65.2344 97.8125 58.4375 91.0156 50 91.0156ZM162.344 128.516C160.391 128.633 155.078 131.055 150.625 135.195C147.227 138.32 144.18 142.344 142.344 146.484H175C179.492 146.484 185 144.258 190.078 141.68C189.922 140.039 189.688 138.672 189.219 137.773C188.594 136.484 187.695 135.547 185.82 134.531C182.07 132.5 174.531 130.82 162.344 128.516ZM190.234 149.18C189.453 149.531 188.906 149.805 188.008 150.156C183.984 151.758 179.297 153.516 175 153.516H9.76562V165.234H168.75C177.422 165.234 186.445 161.836 190.234 160.234V149.18Z" fill="#6214A3"/>
</g>
<defs>
<clipPath id="clip0_9_48">
<rect width="200" height="200" fill="white"/>
</clipPath>
</defs>
</svg>
