<svg width="200" height="200" viewBox="0 0 200 200" fill="none" xmlns="http://www.w3.org/2000/svg">
<g clip-path="url(#clip0_9_41)">
<path d="M185.967 38.1259C171.3 33.3176 133.333 20.8759 133.333 21.0009C133.333 27.6313 130.7 33.9902 126.011 38.6786C121.323 43.367 114.964 46.0009 108.333 46.0009C101.703 46.0009 95.3442 43.367 90.6558 38.6786C85.9674 33.9902 83.3335 27.6313 83.3335 21.0009C83.3335 20.8759 45.3668 33.3176 30.6918 38.1259C29.0291 38.6709 27.5823 39.7294 26.5595 41.1491C25.5367 42.5687 24.9907 44.2763 25.0001 46.0259V76.9926C25.0005 78.2584 25.2892 79.5075 25.8443 80.6451C26.3995 81.7827 27.2065 82.7788 28.2041 83.558C29.2017 84.3371 30.3637 84.8787 31.6019 85.1418C32.8401 85.4048 34.1219 85.3823 35.3501 85.0759L58.3335 79.3343V179.334C58.3335 181.544 59.2114 183.664 60.7742 185.227C62.337 186.79 64.4566 187.668 66.6668 187.668H150C152.21 187.668 154.33 186.79 155.893 185.227C157.455 183.664 158.333 181.544 158.333 179.334V79.3343L181.317 85.0759C182.545 85.3823 183.827 85.4048 185.065 85.1418C186.303 84.8787 187.465 84.3371 188.463 83.558C189.46 82.7788 190.267 81.7827 190.823 80.6451C191.378 79.5075 191.666 78.2584 191.667 76.9926V46.0259C191.676 44.2752 191.128 42.5669 190.104 41.1471C189.08 39.7274 187.631 38.6695 185.967 38.1259Z" fill="#D9D9D9"/>
</g>
<defs>
<clipPath id="clip0_9_41">
<rect width="200" height="200" fill="white"/>
</clipPath>
</defs>
</svg>
